<svg width="20" height="20" viewBox="0 0 20 20" fill="none" xmlns="http://www.w3.org/2000/svg">
<g clip-path="url(#clip0_0_273)">
<path d="M19.9999 15.4707V4.88873C19.9999 3.91283 19.2122 3.12506 18.2363 3.12506H1.76361C0.787711 3.12506 -6.10352e-05 3.91283 -6.10352e-05 4.88873V15.4707C-6.10352e-05 16.4466 0.787711 17.2344 1.76361 17.2344H18.2363C19.2122 17.2344 19.9999 16.4466 19.9999 15.4707ZM18.4597 4.75939C18.8477 5.1474 18.636 5.54717 18.4244 5.74705L13.6507 10.1209L18.2363 14.8946C18.3774 15.0592 18.4714 15.3179 18.3068 15.4943C18.154 15.6824 17.8012 15.6706 17.6484 15.553L12.5102 11.1674L9.99406 13.4602L7.48965 11.1674L2.3515 15.553C2.19865 15.6706 1.84591 15.6824 1.69306 15.4943C1.52845 15.3179 1.62251 15.0592 1.76361 14.8946L6.34914 10.1209L1.57548 5.74705C1.36384 5.54717 1.1522 5.1474 1.54021 4.75939C1.92822 4.37139 2.32798 4.55951 2.6572 4.8417L9.99406 10.7676L17.3427 4.8417C17.6719 4.55951 18.0717 4.37139 18.4597 4.75939Z" fill="white"/>
</g>
<defs>
<clipPath id="clip0_0_273">
<rect width="20" height="20" fill="white"/>
</clipPath>
</defs>
</svg>
