<svg width="133" height="27" viewBox="0 0 133 27" fill="none" xmlns="http://www.w3.org/2000/svg">
<path d="M35.94 21.22C39.988 21.22 42.738 19.284 42.738 16.226C42.738 11.518 34.972 12.926 34.972 10.044C34.972 8.702 36.358 7.756 38.69 7.756C40.23 7.756 41.726 8.174 42.87 8.944L43.992 6.678C42.694 5.842 40.824 5.38 38.844 5.38C34.862 5.38 32.134 7.316 32.134 10.352C32.134 15.302 39.9 13.806 39.9 16.666C39.9 18.03 38.448 18.844 36.204 18.844C34.334 18.844 32.464 18.206 31.188 17.172L29.978 19.416C31.188 20.45 33.52 21.22 35.94 21.22ZM58.7299 9.252H54.9899L48.5439 14.422L50.4799 4.676H47.7299L44.4739 21H47.2239L47.8399 17.898L50.3039 15.918L53.4499 21H56.6399L52.5039 14.29L58.7299 9.252ZM68.7958 9.252L68.4658 10.99C67.6738 9.736 66.2878 9.12 64.4618 9.12C60.6998 9.12 57.8398 11.98 57.8398 15.984C57.8398 19.24 60.1278 21.154 63.0098 21.154C64.5498 21.154 65.8478 20.67 66.8378 19.79L66.5958 21H69.2138L71.5458 9.252H68.7958ZM63.7138 18.8C61.7338 18.8 60.6118 17.678 60.6118 15.852C60.6118 13.256 62.3278 11.452 64.6598 11.452C66.6398 11.452 67.7618 12.574 67.7618 14.4C67.7618 16.996 66.0458 18.8 63.7138 18.8ZM77.7838 11.54H80.9518L81.3918 9.34H78.2238L78.7738 6.656H76.0238L75.4958 9.34H73.5818L73.1418 11.54H75.0558L73.9338 17.084C73.8678 17.414 73.8458 17.722 73.8458 18.008C73.8458 19.988 75.2098 21.154 77.2118 21.154C78.1798 21.154 79.2138 20.978 80.0498 20.45L79.5658 18.426C79.1038 18.734 78.5538 18.888 78.0258 18.888C77.0578 18.888 76.6398 18.382 76.6398 17.568C76.6398 17.414 76.6618 17.238 76.6838 17.062L77.7838 11.54ZM87.6233 21.154C89.8673 21.154 91.8913 20.186 92.9913 18.536L90.9673 17.172C90.1973 18.294 89.0533 18.8 87.7553 18.8C85.7533 18.8 84.6313 17.678 84.6313 15.852C84.6313 13.256 86.3473 11.452 88.6793 11.452C90.0653 11.452 91.0553 11.98 91.6053 13.08L93.9593 11.87C93.0133 10.044 91.2753 9.12 88.8993 9.12C84.7633 9.12 81.8593 12.046 81.8593 15.984C81.8593 19.086 84.1033 21.154 87.6233 21.154ZM103.159 9.12C101.685 9.12 100.343 9.516 99.2871 10.418L100.431 4.676H97.6811L94.4251 21H97.1751L98.4071 14.906C98.8691 12.618 100.255 11.518 102.257 11.518C103.863 11.518 104.611 12.288 104.611 13.652C104.611 13.916 104.589 14.224 104.523 14.554L103.247 21H105.997L107.295 14.488C107.383 14.004 107.449 13.52 107.449 13.102C107.449 10.506 105.733 9.12 103.159 9.12ZM121.891 14.268C121.891 11.056 119.735 9.12 116.479 9.12C112.541 9.12 109.703 12.002 109.703 15.984C109.703 19.108 111.947 21.154 115.489 21.154C117.293 21.154 119.075 20.626 120.307 19.526L119.163 17.612C118.349 18.382 117.117 18.822 115.775 18.822C113.509 18.822 112.431 17.81 112.387 15.94H121.715C121.825 15.434 121.891 14.862 121.891 14.268ZM116.347 11.32C118.173 11.32 119.383 12.31 119.361 14.114H112.629C113.135 12.398 114.477 11.32 116.347 11.32ZM127.856 10.77L128.164 9.252H125.546L123.214 21H125.964L127.13 15.214C127.614 12.772 129.044 11.672 131.2 11.672C131.464 11.672 131.64 11.694 131.882 11.738L132.388 9.12C130.408 9.12 128.934 9.538 127.856 10.77Z" fill="white"/>
<path d="M14.305 10.3432L11.6718 12.9765L12.6913 13.9961L15.3246 11.3628L14.305 10.3432Z" fill="#F2F2F2"/>
<path d="M8.97727 15.6765L6.34399 18.3098L7.36356 19.3293L9.99684 16.6961L8.97727 15.6765Z" fill="#F2F2F2"/>
<path d="M12.6296 8.67651L9.99634 11.3098L11.0159 12.3294L13.6492 9.69608L12.6296 8.67651Z" fill="#F2F2F2"/>
<path d="M7.30918 14.0027L4.6759 16.6359L5.69547 17.6555L8.32875 15.0222L7.30918 14.0027Z" fill="#F2F2F2"/>
<path d="M5.68754 10.3432L4.66797 11.3628L7.30125 13.996L8.32081 12.9765L5.68754 10.3432Z" fill="#F2F2F2"/>
<path d="M7.36356 8.67474L6.34399 9.69431L8.97727 12.3276L9.99684 11.308L7.36356 8.67474Z" fill="#F2F2F2"/>
<path d="M12.6913 13.9953L11.6718 15.0148L14.305 17.6481L15.3246 16.6285L12.6913 13.9953Z" fill="#F2F2F2"/>
<path d="M11.0232 15.6711L10.0037 16.6906L12.6369 19.3239L13.6565 18.3043L11.0232 15.6711Z" fill="#F2F2F2"/>
<path d="M13.6505 20.3486L12.6339 19.332L9.99909 21.9668L7.36425 19.332L6.34766 20.3486L9.99909 24L13.6505 20.3486Z" fill="white"/>
<path d="M4.66803 11.3652L3.65144 10.3486L0 14L3.65144 17.6515L4.66803 16.6349L2.03319 14L4.66803 11.3652Z" fill="white"/>
<path d="M16.3486 10.3486L15.332 11.3652L17.9669 14L15.332 16.6349L16.3486 17.6515L20.0001 14L16.3486 10.3486Z" fill="white"/>
<path d="M12.6339 8.66803L13.6505 7.65144L9.99909 4L6.34766 7.65144L7.36425 8.66803L9.99909 6.03319L12.6339 8.66803Z" fill="white"/>
</svg>
