<svg width="14" height="14" viewBox="0 0 14 14" fill="none" xmlns="http://www.w3.org/2000/svg">
<g clip-path="url(#clip0_1_211)">
<path fill-rule="evenodd" clip-rule="evenodd" d="M13.125 2.3625C13.125 2.13043 13.0328 1.90788 12.8687 1.74378C12.7046 1.57969 12.4821 1.4875 12.25 1.4875H1.75C1.51794 1.4875 1.29537 1.57969 1.13128 1.74378C0.967187 1.90788 0.875 2.13043 0.875 2.3625C0.875 2.59456 0.967187 2.81712 1.13128 2.98122C1.29537 3.14531 1.51794 3.2375 1.75 3.2375H12.25C12.4821 3.2375 12.7046 3.14531 12.8687 2.98122C13.0328 2.81712 13.125 2.59456 13.125 2.3625ZM13.125 6.7375C13.125 6.50543 13.0328 6.28288 12.8687 6.11878C12.7046 5.95469 12.4821 5.8625 12.25 5.8625H1.75C1.51794 5.8625 1.29537 5.95469 1.13128 6.11878C0.967187 6.28288 0.875 6.50543 0.875 6.7375C0.875 6.96956 0.967187 7.19212 1.13128 7.35622C1.29537 7.52031 1.51794 7.6125 1.75 7.6125H12.25C12.4821 7.6125 12.7046 7.52031 12.8687 7.35622C13.0328 7.19212 13.125 6.96956 13.125 6.7375ZM13.125 11.1125C13.125 10.8804 13.0328 10.6579 12.8687 10.4938C12.7046 10.3297 12.4821 10.2375 12.25 10.2375H7C6.76794 10.2375 6.54538 10.3297 6.38128 10.4938C6.21719 10.6579 6.125 10.8804 6.125 11.1125C6.125 11.3446 6.21719 11.5671 6.38128 11.7312C6.54538 11.8953 6.76794 11.9875 7 11.9875H12.25C12.4821 11.9875 12.7046 11.8953 12.8687 11.7312C13.0328 11.5671 13.125 11.3446 13.125 11.1125Z" fill="white"/>
</g>
<defs>
<clipPath id="clip0_1_211">
<rect width="12.25" height="12.25" fill="white" transform="matrix(-1 0 0 1 13.125 0.875)"/>
</clipPath>
</defs>
</svg>
