<svg width="14" height="14" viewBox="0 0 14 14" fill="none" xmlns="http://www.w3.org/2000/svg">
<g clip-path="url(#clip0_1_215)">
<path d="M9.35577 6.05769C9.35577 5.14974 9.03308 4.37307 8.3877 3.72769C7.74231 3.08231 6.96565 2.75962 6.05769 2.75962C5.14974 2.75962 4.37307 3.08231 3.72769 3.72769C3.08231 4.37307 2.75962 5.14974 2.75962 6.05769C2.75962 6.96565 3.08231 7.74231 3.72769 8.3877C4.37307 9.03308 5.14974 9.35577 6.05769 9.35577C6.96565 9.35577 7.74231 9.03308 8.3877 8.3877C9.03308 7.74231 9.35577 6.96565 9.35577 6.05769ZM13.125 12.1827C13.125 12.4379 13.0318 12.6588 12.8453 12.8453C12.6588 13.0318 12.4379 13.125 12.1827 13.125C11.9177 13.125 11.6968 13.0318 11.5201 12.8453L8.99504 10.3275C8.11654 10.9361 7.13742 11.2404 6.05769 11.2404C5.35587 11.2404 4.68472 11.1042 4.04425 10.8318C3.40377 10.5594 2.85164 10.1913 2.38785 9.72754C1.92405 9.26375 1.55596 8.71161 1.28358 8.07114C1.01119 7.43066 0.875 6.75952 0.875 6.05769C0.875 5.35587 1.01119 4.68472 1.28358 4.04425C1.55596 3.40377 1.92405 2.85164 2.38785 2.38785C2.85164 1.92405 3.40377 1.55596 4.04425 1.28358C4.68472 1.01119 5.35587 0.875 6.05769 0.875C6.75952 0.875 7.43066 1.01119 8.07114 1.28358C8.71161 1.55596 9.26375 1.92405 9.72754 2.38785C10.1913 2.85164 10.5594 3.40377 10.8318 4.04425C11.1042 4.68472 11.2404 5.35587 11.2404 6.05769C11.2404 7.13742 10.9361 8.11654 10.3275 8.99504L12.8526 11.5201C13.0342 11.7017 13.125 11.9226 13.125 12.1827Z" fill="white"/>
</g>
<defs>
<clipPath id="clip0_1_215">
<rect width="12.25" height="12.25" fill="white" transform="translate(0.875 0.875)"/>
</clipPath>
</defs>
</svg>
