<svg width="32" height="32" viewBox="0 0 32 32" fill="none" xmlns="http://www.w3.org/2000/svg">
<path d="M30.9657 12.0938L21.3727 10.6996L17.0844 2.00586C16.9673 1.76783 16.7746 1.57514 16.5366 1.45801C15.9396 1.16331 15.2142 1.40889 14.9157 2.00586L10.6274 10.6996L1.03443 12.0938C0.769949 12.1316 0.52814 12.2562 0.343006 12.4452C0.119189 12.6752 -0.00414439 12.9847 0.000106342 13.3056C0.00435708 13.6266 0.135844 13.9327 0.365676 14.1567L7.30632 20.9236L5.66656 30.4788C5.62811 30.701 5.6527 30.9296 5.73756 31.1386C5.82242 31.3476 5.96414 31.5287 6.14666 31.6613C6.32917 31.7938 6.54518 31.8726 6.77019 31.8886C6.99519 31.9047 7.22019 31.8573 7.41967 31.752L16.0001 27.2408L24.5805 31.752C24.8147 31.8767 25.0868 31.9183 25.3475 31.8729C26.0049 31.7596 26.4469 31.1362 26.3336 30.4788L24.6938 20.9236L31.6345 14.1567C31.8234 13.9716 31.9481 13.7298 31.9859 13.4653C32.0879 12.8041 31.6269 12.192 30.9657 12.0938Z" fill="#A85C01"/>
</svg>
