<svg width="40" height="32" viewBox="0 0 40 32" fill="none" xmlns="http://www.w3.org/2000/svg">
<g clip-path="url(#clip0_0_126)">
<path d="M39.6819 9.68C28.6088 -0.561875 11.3869 -0.558125 0.318133 9.68C-0.0981171 10.065 -0.106242 10.7169 0.296258 11.1163L2.43626 13.2394C2.82001 13.6206 3.43751 13.6288 3.83626 13.2631C12.9563 4.90813 27.0425 4.90625 36.1644 13.2631C36.5631 13.6288 37.1806 13.62 37.5644 13.2394L39.7044 11.1163C40.1063 10.7169 40.0981 10.065 39.6819 9.68ZM20 22C17.7906 22 16 23.7906 16 26C16 28.2094 17.7906 30 20 30C22.2094 30 24 28.2094 24 26C24 23.7906 22.2094 22 20 22ZM32.6669 16.7756C25.4631 10.405 14.5288 10.4119 7.33313 16.7756C6.90188 17.1569 6.88813 17.8187 7.29751 18.2225L9.45001 20.3469C9.82501 20.7169 10.4288 20.7419 10.8281 20.3969C16.075 15.8612 23.9369 15.8713 29.1713 20.3969C29.5706 20.7419 30.1744 20.7175 30.5494 20.3469L32.7019 18.2225C33.1119 17.8187 33.0975 17.1562 32.6669 16.7756Z" fill="white"/>
</g>
<defs>
<clipPath id="clip0_0_126">
<rect width="40" height="32" fill="white"/>
</clipPath>
</defs>
</svg>
